<svg width="254" height="104" viewBox="0 0 254 104" fill="none" xmlns="http://www.w3.org/2000/svg">
    <path d="M2.5 101L38 1.5H58L60 51L75.5 1.5H101.5L62.5 101H45L41.5 51L24.5 101H2.5Z" fill="#1F1F1F" stroke="#1F1F1F"
        stroke-width="3" />
    <path d="M71 102L108.5 2H132L95 102H71Z" fill="#1F1F1F" stroke="#1F1F1F" stroke-width="3" />
    <path
        d="M105 101L140.365 2H165.12L149.964 38.8141L179.266 2H202L165.12 44.7839L167.646 101H144.406V58.2161L130.26 101H105Z"
        fill="#1F1F1F" stroke="#1F1F1F" stroke-width="3" />
    <path
        d="M203.5 10.4573L206.5 2H251L245 20.407H223L218.5 38.3166H239.5L232.5 56.7236H212.5L203.5 79.608H225.5L218.5 101H171L176 86.0754L203.5 10.4573Z"
        fill="#1F1F1F" stroke="#1F1F1F" stroke-width="3" />
</svg>